<svg xmlns="http://www.w3.org/2000/svg" viewBox="0 0 480 300" role="img" aria-label="Solder bridge cross-section"><title>Solder bridge — cross-section</title><defs>
<linearGradient id="sol" x1="0" y1="0" x2="1" y2="1"><stop offset="0" stop-color="#f4f6f8"/><stop offset=".45" stop-color="#b9c1c9"/><stop offset="1" stop-color="#7d8791"/></linearGradient>
<linearGradient id="dull" x1="0" y1="0" x2="1" y2="1"><stop offset="0" stop-color="#9da3a8"/><stop offset="1" stop-color="#6c7176"/></linearGradient>
<linearGradient id="lead" x1="0" y1="0" x2="1" y2="0"><stop offset="0" stop-color="#8a8f94"/><stop offset=".5" stop-color="#e3e6e8"/><stop offset="1" stop-color="#8a8f94"/></linearGradient>
<pattern id="grain" width="6" height="6" patternUnits="userSpaceOnUse"><circle cx="1.5" cy="1.5" r="1" fill="#5a5f63" opacity=".55"/><circle cx="4.5" cy="4" r=".8" fill="#c7ccd0" opacity=".5"/></pattern>
</defs><rect width="480" height="300" fill="#f6f1e7"/><rect x="20" y="190" width="440" height="34" rx="3" fill="#2f7d4a"/><rect x="20" y="190" width="440" height="4" fill="#3d9a5d"/><rect x="168" y="190" width="24" height="34" fill="#1a3a26"/><rect x="288" y="190" width="24" height="34" fill="#1a3a26"/><rect x="110" y="190" width="140" height="34" fill="none"/><rect x="168" y="190" width="3" height="34" fill="#c87533"/><rect x="189" y="190" width="3" height="34" fill="#c87533"/><rect x="142" y="186" width="26" height="4" fill="#c87533"/><rect x="192" y="186" width="26" height="4" fill="#c87533"/><rect x="142" y="224" width="26" height="4" fill="#c87533"/><rect x="192" y="224" width="26" height="4" fill="#c87533"/><rect x="230" y="190" width="140" height="34" fill="none"/><rect x="288" y="190" width="3" height="34" fill="#c87533"/><rect x="309" y="190" width="3" height="34" fill="#c87533"/><rect x="262" y="186" width="26" height="4" fill="#c87533"/><rect x="312" y="186" width="26" height="4" fill="#c87533"/><rect x="262" y="224" width="26" height="4" fill="#c87533"/><rect x="312" y="224" width="26" height="4" fill="#c87533"/><path d="M140 190 Q168 186 174 138 L186 138 Q192 186 220 190 Z" fill="url(#sol)"/><path d="M150 187 Q168 180 172 150" stroke="#fff" stroke-width="3" fill="none" opacity=".8" stroke-linecap="round"/><rect x="168" y="190" width="24" height="34" fill="url(#sol)" opacity=".9"/><path d="M260 190 Q288 186 294 138 L306 138 Q312 186 340 190 Z" fill="url(#sol)"/><path d="M270 187 Q288 180 292 150" stroke="#fff" stroke-width="3" fill="none" opacity=".8" stroke-linecap="round"/><rect x="288" y="190" width="24" height="34" fill="url(#sol)" opacity=".9"/><path d="M200 190 C210 150 270 150 280 190 Z" fill="url(#sol)"/><circle cx="240" cy="168" r="5" fill="#fff" opacity=".7"/><rect x="175" y="70" width="10" height="70" rx="2" fill="url(#lead)"/><rect x="295" y="70" width="10" height="70" rx="2" fill="url(#lead)"/><rect x="175" y="224" width="10" height="44" rx="2" fill="url(#lead)"/><rect x="295" y="224" width="10" height="44" rx="2" fill="url(#lead)"/><path d="M240 130 v-30" stroke="#e53935" stroke-width="3"/><text x="240" y="94" fill="#e53935" font-family="Inter,Arial,sans-serif" font-weight="800" font-size="16" text-anchor="middle">SHORT</text><text x="24" y="34" font-family="Inter,Arial,sans-serif" font-weight="800" font-size="20" fill="#1d1d1f">Solder bridge</text><text x="24" y="286" font-family="Inter,Arial,sans-serif" font-size="12" fill="#5b6470">Cross-section: component side below, solder side up</text></svg>