<svg xmlns="http://www.w3.org/2000/svg" viewBox="0 0 400 300">
  <defs>
    <linearGradient id="sky" x1="0" y1="0" x2="0" y2="1">
      <stop offset="0%" stop-color="#9fe0ff"/>
      <stop offset="100%" stop-color="#5fb6e8"/>
    </linearGradient>
  </defs>
  <rect width="400" height="300" fill="url(#sky)"/>
  <circle cx="335" cy="45" r="24" fill="#ffe38a"/>
  <rect x="60" y="60" width="55" height="16" rx="8" fill="#ffffff" opacity="0.85"/>
  <rect x="240" y="90" width="65" height="18" rx="9" fill="#ffffff" opacity="0.8"/>
  <rect x="0" y="190" width="400" height="110" fill="#5fae4a"/>
  <g stroke="#ffffff" stroke-width="3" opacity="0.9">
    <line x1="0" y1="192" x2="400" y2="192"/>
    <line x1="0" y1="205" x2="400" y2="205"/>
  </g>
  <g fill="#3f8f3a">
    <circle cx="30" cy="175" r="20"/>
    <circle cx="50" cy="165" r="16"/>
    <rect x="36" y="185" width="8" height="20" fill="#6b4a2f"/>
  </g>
  <g fill="#4fa843">
    <circle cx="365" cy="180" r="18"/>
    <rect x="360" y="192" width="8" height="18" fill="#6b4a2f"/>
  </g>
  <!-- frisbee -->
  <ellipse cx="255" cy="130" rx="26" ry="9" fill="#e2453c"/>
  <ellipse cx="255" cy="127" rx="26" ry="9" fill="#ff6a5e"/>
  <!-- dog -->
  <g>
    <rect x="150" y="215" width="9" height="26" fill="#8a5a2a"/>
    <rect x="178" y="215" width="9" height="26" fill="#8a5a2a"/>
    <rect x="140" y="175" width="70" height="42" rx="10" fill="#c88a4a"/>
    <rect x="196" y="150" width="34" height="34" rx="8" fill="#c88a4a"/>
    <rect x="222" y="158" width="16" height="14" rx="4" fill="#c88a4a"/>
    <rect x="200" y="140" width="9" height="16" fill="#8a5a2a" transform="rotate(-15 204 148)"/>
    <rect x="218" y="140" width="9" height="16" fill="#8a5a2a" transform="rotate(15 222 148)"/>
    <circle cx="218" cy="164" r="3" fill="#2b2320"/>
    <rect x="130" y="180" width="18" height="9" rx="4" fill="#8a5a2a" transform="rotate(20 139 184)"/>
  </g>
  <ellipse cx="175" cy="245" rx="70" ry="8" fill="#3a7a30" opacity="0.4"/>
  <text x="200" y="285" font-family="Segoe UI, sans-serif" font-size="28" font-weight="800" fill="#0f3f5c" text-anchor="middle">Bark Park</text>
</svg>
