<?xml version="1.0" encoding="UTF-8"?>
<svg xmlns="http://www.w3.org/2000/svg" width="1600" height="900" viewBox="0 0 1600 900" role="img" aria-label="Cooper's Pivot Animation — Pivot animation by Cooper">
  <defs>
    <linearGradient id="bg" x1="0" y1="0" x2="1" y2="1">
      <stop offset="0%" stop-color="#111827"/>
      <stop offset="100%" stop-color="#0f3b4c"/>
    </linearGradient>
    <clipPath id="stage">
      <rect x="248.9" y="96.0" width="1102.2" height="620.0" rx="18"/>
    </clipPath>
  </defs>
  <rect width="1600" height="900" fill="url(#bg)"/>
  <rect x="248.9" y="96.0" width="1102.2" height="620.0" rx="18" fill="#ffffff"/>
  <g clip-path="url(#stage)">
    <g transform="translate(248.9 96.0) scale(1.7222)"><line x1="113.05" y1="344.97" x2="163.04" y2="346.14" stroke="rgb(0,255,255)" stroke-width="14" stroke-linecap="round"/><line x1="163.04" y1="346.14" x2="240.51" y2="351.27" stroke="rgb(0,255,255)" stroke-width="14" stroke-linecap="round"/><line x1="113.05" y1="344.97" x2="92.29" y2="356.03" stroke="rgb(0,0,0)" stroke-width="14" stroke-linecap="round"/><line x1="732.29" y1="258.9" x2="712.29" y2="258.66" stroke="rgb(0,0,0)" stroke-width="14" stroke-linecap="round"/><line x1="732.29" y1="258.9" x2="829.48" y2="262.27" stroke="rgb(255,0,0)" stroke-width="14" stroke-linecap="round"/><line x1="732.29" y1="258.9" x2="736.63" y2="243.22" stroke="rgb(0,0,0)" stroke-width="14" stroke-linecap="round"/><line x1="732.29" y1="258.9" x2="737.3" y2="270.61" stroke="rgb(0,0,0)" stroke-width="14" stroke-linecap="round"/><line x1="263" y1="171.75" x2="215" y2="172.17" stroke="rgb(128,0,255)" stroke-width="6" stroke-linecap="round"/><line x1="263" y1="171.75" x2="276.14" y2="170.52" stroke="rgb(0,0,0)" stroke-width="6" stroke-linecap="round"/><line x1="365" y1="263.75" x2="365" y2="231.75" stroke="rgb(128,0,255)" stroke-width="14" stroke-linecap="round"/><line x1="365" y1="231.75" x2="365" y2="199.75" stroke="rgb(128,0,255)" stroke-width="14" stroke-linecap="round"/><line x1="365" y1="199.75" x2="362.97" y2="166.82" stroke="rgb(128,0,255)" stroke-width="14" stroke-linecap="round"/><circle cx="363.59" cy="176.8" r="10" fill="rgb(128,0,255)" stroke="rgb(128,0,255)" stroke-width="20"/><line x1="365" y1="199.75" x2="329.35" y2="212.91" stroke="rgb(128,0,255)" stroke-width="14" stroke-linecap="round"/><line x1="365" y1="199.75" x2="338.22" y2="226.72" stroke="rgb(128,0,255)" stroke-width="14" stroke-linecap="round"/><line x1="329.35" y1="212.91" x2="292.43" y2="197.52" stroke="rgb(128,0,255)" stroke-width="14" stroke-linecap="round"/><line x1="338.22" y1="226.72" x2="303.16" y2="245.97" stroke="rgb(128,0,255)" stroke-width="14" stroke-linecap="round"/><line x1="365" y1="263.75" x2="345.87" y2="309.95" stroke="rgb(128,0,255)" stroke-width="14" stroke-linecap="round"/><line x1="365" y1="263.75" x2="384.13" y2="309.95" stroke="rgb(128,0,255)" stroke-width="14" stroke-linecap="round"/><line x1="345.87" y1="309.95" x2="326.73" y2="356.14" stroke="rgb(128,0,255)" stroke-width="14" stroke-linecap="round"/><line x1="384.13" y1="309.95" x2="403.27" y2="356.14" stroke="rgb(128,0,255)" stroke-width="14" stroke-linecap="round"/><line x1="249" y1="223.75" x2="201.21" y2="228.21" stroke="rgb(128,0,255)" stroke-width="6" stroke-linecap="round"/><line x1="249" y1="223.75" x2="262.11" y2="222.24" stroke="rgb(0,0,0)" stroke-width="6" stroke-linecap="round"/><line x1="260" y1="183.75" x2="212.14" y2="187.48" stroke="rgb(128,0,255)" stroke-width="6" stroke-linecap="round"/><line x1="260" y1="183.75" x2="273.19" y2="183.2" stroke="rgb(0,0,0)" stroke-width="6" stroke-linecap="round"/><line x1="255" y1="203.75" x2="207.13" y2="200.19" stroke="rgb(128,0,255)" stroke-width="6" stroke-linecap="round"/><line x1="255" y1="203.75" x2="268.13" y2="205.16" stroke="rgb(0,0,0)" stroke-width="6" stroke-linecap="round"/><line x1="266" y1="264.75" x2="218.03" y2="266.57" stroke="rgb(128,0,255)" stroke-width="6" stroke-linecap="round"/><line x1="266" y1="264.75" x2="279.1" y2="263.12" stroke="rgb(0,0,0)" stroke-width="6" stroke-linecap="round"/><line x1="252" y1="245.75" x2="204.05" y2="248" stroke="rgb(128,0,255)" stroke-width="6" stroke-linecap="round"/><line x1="252" y1="245.75" x2="265.2" y2="246.04" stroke="rgb(0,0,0)" stroke-width="6" stroke-linecap="round"/><line x1="25" y1="348.75" x2="-6.88" y2="351.5" stroke="rgb(0,0,0)" stroke-width="14" stroke-linecap="round"/><line x1="-6.88" y1="351.5" x2="-38.88" y2="351.99" stroke="rgb(0,0,0)" stroke-width="14" stroke-linecap="round"/><line x1="-38.88" y1="351.99" x2="-69.24" y2="364.92" stroke="rgb(0,0,0)" stroke-width="14" stroke-linecap="round"/><circle cx="-60.04" cy="361" r="10" fill="rgb(0,0,0)" stroke="rgb(0,0,0)" stroke-width="20"/><line x1="-38.88" y1="351.99" x2="-7.05" y2="372.74" stroke="rgb(0,0,0)" stroke-width="14" stroke-linecap="round"/><line x1="-38.88" y1="351.99" x2="-9.36" y2="375.91" stroke="rgb(0,0,0)" stroke-width="14" stroke-linecap="round"/><line x1="-7.05" y1="372.74" x2="31.94" y2="381.7" stroke="rgb(0,0,0)" stroke-width="14" stroke-linecap="round"/><line x1="-9.36" y1="375.91" x2="29.23" y2="386.47" stroke="rgb(0,0,0)" stroke-width="14" stroke-linecap="round"/><line x1="25" y1="348.75" x2="75" y2="348.32" stroke="rgb(0,0,0)" stroke-width="14" stroke-linecap="round"/><line x1="25" y1="348.75" x2="74.97" y2="350.42" stroke="rgb(0,0,0)" stroke-width="14" stroke-linecap="round"/><line x1="75" y1="348.32" x2="125" y2="347.88" stroke="rgb(0,0,0)" stroke-width="14" stroke-linecap="round"/><line x1="74.97" y1="350.42" x2="124.94" y2="352.09" stroke="rgb(0,0,0)" stroke-width="14" stroke-linecap="round"/><line x1="489" y1="347.75" x2="520.2" y2="354.88" stroke="rgb(0,0,0)" stroke-width="14" stroke-linecap="round"/><line x1="520.2" y1="354.88" x2="551.83" y2="350.05" stroke="rgb(0,0,0)" stroke-width="14" stroke-linecap="round"/><line x1="551.83" y1="350.05" x2="584.74" y2="347.64" stroke="rgb(0,0,0)" stroke-width="14" stroke-linecap="round"/><circle cx="574.77" cy="348.37" r="10" fill="rgb(0,0,0)" stroke="rgb(0,0,0)" stroke-width="20"/><line x1="551.83" y1="350.05" x2="513.87" y2="348.25" stroke="rgb(0,0,0)" stroke-width="14" stroke-linecap="round"/><line x1="551.83" y1="350.05" x2="513.89" y2="352.23" stroke="rgb(0,0,0)" stroke-width="14" stroke-linecap="round"/><line x1="513.87" y1="348.25" x2="474.77" y2="339.85" stroke="rgb(0,0,0)" stroke-width="14" stroke-linecap="round"/><line x1="513.89" y1="352.23" x2="474.46" y2="345.52" stroke="rgb(0,0,0)" stroke-width="14" stroke-linecap="round"/><line x1="489" y1="347.75" x2="439.74" y2="356.3" stroke="rgb(0,0,0)" stroke-width="14" stroke-linecap="round"/><line x1="489" y1="347.75" x2="439.12" y2="351.18" stroke="rgb(0,0,0)" stroke-width="14" stroke-linecap="round"/><line x1="439.74" y1="356.3" x2="390.33" y2="348.62" stroke="rgb(0,0,0)" stroke-width="14" stroke-linecap="round"/><line x1="439.12" y1="351.18" x2="390.22" y2="340.73" stroke="rgb(0,0,0)" stroke-width="14" stroke-linecap="round"/><line x1="549" y1="255.75" x2="563.66" y2="303.56" stroke="rgb(0,255,255)" stroke-width="14" stroke-linecap="round"/><line x1="563.66" y1="303.56" x2="581" y2="379.24" stroke="rgb(0,255,255)" stroke-width="14" stroke-linecap="round"/><line x1="549" y1="255.75" x2="542.99" y2="233.01" stroke="rgb(0,0,0)" stroke-width="14" stroke-linecap="round"/><line x1="477" y1="243.75" x2="477" y2="211.75" stroke="rgb(0,0,0)" stroke-width="14" stroke-linecap="round"/><line x1="477" y1="211.75" x2="477" y2="179.75" stroke="rgb(0,0,0)" stroke-width="14" stroke-linecap="round"/><line x1="477" y1="179.75" x2="477" y2="146.75" stroke="rgb(0,0,0)" stroke-width="14" stroke-linecap="round"/><circle cx="477" cy="156.75" r="10" fill="rgb(0,0,0)" stroke="rgb(0,0,0)" stroke-width="20"/><line x1="477" y1="179.75" x2="450.13" y2="206.62" stroke="rgb(0,0,0)" stroke-width="14" stroke-linecap="round"/><line x1="477" y1="179.75" x2="503.87" y2="206.62" stroke="rgb(0,0,0)" stroke-width="14" stroke-linecap="round"/><line x1="450.13" y1="206.62" x2="430.13" y2="241.27" stroke="rgb(0,0,0)" stroke-width="14" stroke-linecap="round"/><line x1="503.87" y1="206.62" x2="523.87" y2="241.27" stroke="rgb(0,0,0)" stroke-width="14" stroke-linecap="round"/><line x1="477" y1="243.75" x2="457.87" y2="289.95" stroke="rgb(0,0,0)" stroke-width="14" stroke-linecap="round"/><line x1="477" y1="243.75" x2="496.13" y2="289.95" stroke="rgb(0,0,0)" stroke-width="14" stroke-linecap="round"/><line x1="457.87" y1="289.95" x2="438.73" y2="336.14" stroke="rgb(0,0,0)" stroke-width="14" stroke-linecap="round"/><line x1="496.13" y1="289.95" x2="515.27" y2="336.14" stroke="rgb(0,0,0)" stroke-width="14" stroke-linecap="round"/><line x1="159" y1="240.75" x2="159" y2="208.75" stroke="rgb(0,0,0)" stroke-width="14" stroke-linecap="round"/><line x1="159" y1="208.75" x2="159" y2="176.75" stroke="rgb(0,0,0)" stroke-width="14" stroke-linecap="round"/><line x1="159" y1="176.75" x2="159" y2="143.75" stroke="rgb(0,0,0)" stroke-width="14" stroke-linecap="round"/><circle cx="159" cy="153.75" r="10" fill="rgb(0,0,0)" stroke="rgb(0,0,0)" stroke-width="20"/><line x1="159" y1="176.75" x2="127.31" y2="197.73" stroke="rgb(0,0,0)" stroke-width="14" stroke-linecap="round"/><line x1="159" y1="176.75" x2="161.36" y2="214.68" stroke="rgb(0,0,0)" stroke-width="14" stroke-linecap="round"/><line x1="127.31" y1="197.73" x2="135.14" y2="236.95" stroke="rgb(0,0,0)" stroke-width="14" stroke-linecap="round"/><line x1="161.36" y1="214.68" x2="199.15" y2="201.57" stroke="rgb(0,0,0)" stroke-width="14" stroke-linecap="round"/><line x1="159" y1="240.75" x2="139.87" y2="286.95" stroke="rgb(0,0,0)" stroke-width="14" stroke-linecap="round"/><line x1="159" y1="240.75" x2="178.13" y2="286.95" stroke="rgb(0,0,0)" stroke-width="14" stroke-linecap="round"/><line x1="139.87" y1="286.95" x2="120.73" y2="333.14" stroke="rgb(0,0,0)" stroke-width="14" stroke-linecap="round"/><line x1="178.13" y1="286.95" x2="197.27" y2="333.14" stroke="rgb(0,0,0)" stroke-width="14" stroke-linecap="round"/><line x1="585" y1="263.75" x2="585" y2="231.75" stroke="rgb(0,0,0)" stroke-width="14" stroke-linecap="round"/><line x1="585" y1="231.75" x2="585" y2="199.75" stroke="rgb(0,0,0)" stroke-width="14" stroke-linecap="round"/><line x1="585" y1="199.75" x2="585" y2="166.75" stroke="rgb(0,0,0)" stroke-width="14" stroke-linecap="round"/><circle cx="585" cy="176.75" r="10" fill="rgb(0,0,0)" stroke="rgb(0,0,0)" stroke-width="20"/><line x1="585" y1="199.75" x2="558.13" y2="226.62" stroke="rgb(0,0,0)" stroke-width="14" stroke-linecap="round"/><line x1="585" y1="199.75" x2="611.87" y2="226.62" stroke="rgb(0,0,0)" stroke-width="14" stroke-linecap="round"/><line x1="558.13" y1="226.62" x2="526.04" y2="202.75" stroke="rgb(0,0,0)" stroke-width="14" stroke-linecap="round"/><line x1="611.87" y1="226.62" x2="631.87" y2="261.27" stroke="rgb(0,0,0)" stroke-width="14" stroke-linecap="round"/><line x1="585" y1="263.75" x2="565.87" y2="309.95" stroke="rgb(0,0,0)" stroke-width="14" stroke-linecap="round"/><line x1="585" y1="263.75" x2="604.13" y2="309.95" stroke="rgb(0,0,0)" stroke-width="14" stroke-linecap="round"/><line x1="565.87" y1="309.95" x2="546.73" y2="356.14" stroke="rgb(0,0,0)" stroke-width="14" stroke-linecap="round"/><line x1="604.13" y1="309.95" x2="623.27" y2="356.14" stroke="rgb(0,0,0)" stroke-width="14" stroke-linecap="round"/><line x1="43" y1="243.75" x2="43" y2="211.75" stroke="rgb(0,0,0)" stroke-width="14" stroke-linecap="round"/><line x1="43" y1="211.75" x2="43" y2="179.75" stroke="rgb(0,0,0)" stroke-width="14" stroke-linecap="round"/><line x1="43" y1="179.75" x2="43" y2="146.75" stroke="rgb(0,0,0)" stroke-width="14" stroke-linecap="round"/><circle cx="43" cy="156.75" r="10" fill="rgb(0,0,0)" stroke="rgb(0,0,0)" stroke-width="20"/><line x1="43" y1="179.75" x2="16.13" y2="206.62" stroke="rgb(0,0,0)" stroke-width="14" stroke-linecap="round"/><line x1="43" y1="179.75" x2="69.87" y2="206.62" stroke="rgb(0,0,0)" stroke-width="14" stroke-linecap="round"/><line x1="16.13" y1="206.62" x2="17.01" y2="246.61" stroke="rgb(0,0,0)" stroke-width="14" stroke-linecap="round"/><line x1="69.87" y1="206.62" x2="89.87" y2="241.27" stroke="rgb(0,0,0)" stroke-width="14" stroke-linecap="round"/><line x1="43" y1="243.75" x2="23.87" y2="289.95" stroke="rgb(0,0,0)" stroke-width="14" stroke-linecap="round"/><line x1="43" y1="243.75" x2="62.13" y2="289.95" stroke="rgb(0,0,0)" stroke-width="14" stroke-linecap="round"/><line x1="23.87" y1="289.95" x2="4.73" y2="336.14" stroke="rgb(0,0,0)" stroke-width="14" stroke-linecap="round"/><line x1="62.13" y1="289.95" x2="81.27" y2="336.14" stroke="rgb(0,0,0)" stroke-width="14" stroke-linecap="round"/><line x1="431" y1="227.75" x2="428.89" y2="177.8" stroke="rgb(0,255,255)" stroke-width="14" stroke-linecap="round"/><line x1="428.89" y1="177.8" x2="425" y2="100.25" stroke="rgb(0,255,255)" stroke-width="14" stroke-linecap="round"/><line x1="431" y1="227.75" x2="432" y2="251.25" stroke="rgb(0,0,0)" stroke-width="14" stroke-linecap="round"/><line x1="94" y1="230.75" x2="107.59" y2="182.64" stroke="rgb(0,255,255)" stroke-width="14" stroke-linecap="round"/><line x1="107.59" y1="182.64" x2="128.09" y2="107.75" stroke="rgb(0,255,255)" stroke-width="14" stroke-linecap="round"/><line x1="94" y1="230.75" x2="83.65" y2="251.88" stroke="rgb(0,0,0)" stroke-width="14" stroke-linecap="round"/><line x1="198" y1="194.75" x2="195.89" y2="144.8" stroke="rgb(0,255,255)" stroke-width="14" stroke-linecap="round"/><line x1="195.89" y1="144.8" x2="192" y2="67.25" stroke="rgb(0,255,255)" stroke-width="14" stroke-linecap="round"/><line x1="198" y1="194.75" x2="199" y2="218.25" stroke="rgb(0,0,0)" stroke-width="14" stroke-linecap="round"/><line x1="528" y1="197.75" x2="525.89" y2="147.8" stroke="rgb(0,255,255)" stroke-width="14" stroke-linecap="round"/><line x1="525.89" y1="147.8" x2="522" y2="70.25" stroke="rgb(0,255,255)" stroke-width="14" stroke-linecap="round"/><line x1="528" y1="197.75" x2="529" y2="221.25" stroke="rgb(0,0,0)" stroke-width="14" stroke-linecap="round"/></g>
  </g>
  <text x="96" y="800" fill="#f4fbff" font-size="60" font-family="Segoe UI, Arial, sans-serif" font-weight="700">Cooper's Pivot Animation</text>
  <text x="96" y="860" fill="#cfe4ef" font-size="38" font-family="Segoe UI, Arial, sans-serif">Pivot Animation · Cooper</text>
</svg>
