<svg width="1200" height="675" viewBox="0 0 1200 675" xmlns="http://www.w3.org/2000/svg" role="img" aria-labelledby="title desc">
  <title id="title">Myths and Early AI Concepts</title>
  <desc id="desc">A stylized composition of a bronze figure, symbolic gears, and abstract circuit-like lines.</desc>
  <defs>
    <linearGradient id="bg" x1="0" y1="0" x2="1" y2="1">
      <stop offset="0%" stop-color="#0f1728"/>
      <stop offset="100%" stop-color="#233b63"/>
    </linearGradient>
    <radialGradient id="halo" cx="0.2" cy="0.2" r="0.8">
      <stop offset="0%" stop-color="#e4bf78" stop-opacity="0.65"/>
      <stop offset="100%" stop-color="#e4bf78" stop-opacity="0"/>
    </radialGradient>
  </defs>
  <rect width="1200" height="675" fill="url(#bg)"/>
  <rect width="1200" height="675" fill="url(#halo)"/>
  <g opacity="0.5" stroke="#8fb6ed" stroke-width="3" fill="none">
    <path d="M60 560C220 470 350 470 500 560"/>
    <path d="M520 560C700 450 860 460 1100 560"/>
    <circle cx="500" cy="560" r="10" fill="#8fb6ed"/>
    <circle cx="760" cy="515" r="10" fill="#8fb6ed"/>
    <circle cx="980" cy="540" r="10" fill="#8fb6ed"/>
  </g>
  <g transform="translate(190 160)">
    <circle cx="210" cy="148" r="96" fill="#c08b4c"/>
    <rect x="128" y="230" width="166" height="220" rx="28" fill="#b57c3b"/>
    <rect x="90" y="260" width="52" height="160" rx="20" fill="#b57c3b"/>
    <rect x="280" y="260" width="52" height="160" rx="20" fill="#b57c3b"/>
    <rect x="150" y="442" width="50" height="130" rx="20" fill="#b57c3b"/>
    <rect x="220" y="442" width="50" height="130" rx="20" fill="#b57c3b"/>
    <circle cx="178" cy="140" r="12" fill="#1f2f4a"/>
    <circle cx="242" cy="140" r="12" fill="#1f2f4a"/>
  </g>
  <g transform="translate(700 170)">
    <circle cx="140" cy="150" r="120" fill="#32598c" stroke="#9fc1ef" stroke-width="6"/>
    <circle cx="140" cy="150" r="62" fill="#233f67" stroke="#9fc1ef" stroke-width="6"/>
    <circle cx="140" cy="20" r="20" fill="#9fc1ef"/>
    <circle cx="260" cy="86" r="20" fill="#9fc1ef"/>
    <circle cx="260" cy="214" r="20" fill="#9fc1ef"/>
    <circle cx="140" cy="280" r="20" fill="#9fc1ef"/>
    <circle cx="20" cy="214" r="20" fill="#9fc1ef"/>
    <circle cx="20" cy="86" r="20" fill="#9fc1ef"/>
  </g>
  <text x="70" y="78" fill="#f2e5c8" font-size="46" font-family="Georgia, 'Times New Roman', serif">Mythic Machines, Symbolic Minds</text>
  <text x="70" y="122" fill="#d4e3fa" font-size="26" font-family="'Segoe UI', Arial, sans-serif">Early stories and rule systems that foreshadow modern AI questions</text>
</svg>
