<svg width="1200" height="675" viewBox="0 0 1200 675" xmlns="http://www.w3.org/2000/svg" role="img" aria-labelledby="title desc">
  <title id="title">Mechanical Turk Illustration</title>
  <desc id="desc">A stylized wooden cabinet chess automaton with hidden compartment motif.</desc>
  <defs>
    <linearGradient id="bg" x1="0" y1="0" x2="1" y2="1">
      <stop offset="0%" stop-color="#231b16"/>
      <stop offset="100%" stop-color="#5a3f2f"/>
    </linearGradient>
    <linearGradient id="wood" x1="0" y1="0" x2="0" y2="1">
      <stop offset="0%" stop-color="#7a5136"/>
      <stop offset="100%" stop-color="#593724"/>
    </linearGradient>
  </defs>
  <rect width="1200" height="675" fill="url(#bg)"/>
  <g transform="translate(240 150)">
    <rect x="170" y="90" width="420" height="280" rx="18" fill="url(#wood)" stroke="#c49c76" stroke-width="6"/>
    <rect x="205" y="128" width="130" height="200" rx="10" fill="#3f2518" stroke="#c49c76" stroke-width="4"/>
    <rect x="350" y="128" width="205" height="88" rx="10" fill="#3f2518" stroke="#c49c76" stroke-width="4"/>
    <rect x="350" y="236" width="205" height="92" rx="10" fill="#3f2518" stroke="#c49c76" stroke-width="4"/>
    <rect x="258" y="35" width="250" height="72" rx="10" fill="#4b2f20" stroke="#c49c76" stroke-width="5"/>
    <g transform="translate(280 48)">
      <rect width="205" height="46" fill="#d0b58b"/>
      <rect x="22" width="24" height="46" fill="#7d5b3f"/>
      <rect x="68" width="24" height="46" fill="#7d5b3f"/>
      <rect x="114" width="24" height="46" fill="#7d5b3f"/>
      <rect x="160" width="24" height="46" fill="#7d5b3f"/>
      <circle cx="34" cy="16" r="8" fill="#1f2b3f"/>
      <circle cx="80" cy="28" r="8" fill="#1f2b3f"/>
      <circle cx="126" cy="14" r="8" fill="#1f2b3f"/>
      <circle cx="172" cy="29" r="8" fill="#1f2b3f"/>
    </g>
    <circle cx="110" cy="92" r="58" fill="#e1c399"/>
    <rect x="60" y="150" width="98" height="200" rx="22" fill="#d5a86d"/>
    <rect x="82" y="350" width="24" height="120" rx="10" fill="#d5a86d"/>
    <rect x="114" y="350" width="24" height="120" rx="10" fill="#d5a86d"/>
    <circle cx="92" cy="88" r="8" fill="#1f2c44"/>
    <circle cx="127" cy="88" r="8" fill="#1f2c44"/>
  </g>
  <text x="70" y="82" fill="#f0d9bf" font-size="44" font-family="Georgia, 'Times New Roman', serif">The Mechanical Turk</text>
  <text x="70" y="124" fill="#d9e2f2" font-size="24" font-family="'Segoe UI', Arial, sans-serif">A famous illusion of machine intelligence powered by hidden human play</text>
</svg>
