<svg xmlns="http://www.w3.org/2000/svg" viewBox="0 0 1200 900" role="img" aria-labelledby="title desc">
  <title id="title">The Engine from Gulliver's Travels</title>
  <desc id="desc">A stylized parchment drawing of Jonathan Swift's Engine: a large grid of movable word blocks with crank handles around the edges.</desc>
  <defs>
    <linearGradient id="paper" x1="0" y1="0" x2="0" y2="1">
      <stop offset="0%" stop-color="#f3eee3" />
      <stop offset="100%" stop-color="#e4d8bf" />
    </linearGradient>
    <linearGradient id="frame" x1="0" y1="0" x2="1" y2="1">
      <stop offset="0%" stop-color="#d2bc8f" />
      <stop offset="100%" stop-color="#b08e4d" />
    </linearGradient>
    <pattern id="grain" width="18" height="18" patternUnits="userSpaceOnUse">
      <circle cx="3" cy="4" r="1" fill="#d8c8a3" opacity="0.38" />
      <circle cx="12" cy="8" r="1" fill="#d2c09b" opacity="0.26" />
      <circle cx="8" cy="15" r="1" fill="#cab890" opacity="0.18" />
    </pattern>
  </defs>

  <rect width="1200" height="900" rx="36" fill="url(#paper)" />
  <rect width="1200" height="900" rx="36" fill="url(#grain)" />

  <rect x="92" y="78" width="1016" height="744" rx="30" fill="#f8f3e8" stroke="#8a6a31" stroke-width="12" />
  <rect x="132" y="118" width="936" height="664" rx="18" fill="url(#frame)" opacity="0.28" />
  <rect x="172" y="158" width="856" height="584" rx="12" fill="#efe1bd" stroke="#8a6a31" stroke-width="8" />

  <g fill="none" stroke="#624816" stroke-width="8" stroke-linecap="round" stroke-linejoin="round" opacity="0.92">
    <path d="M172 230 H116 v-54 h-38" />
    <path d="M172 326 H104 v-54 H68" />
    <path d="M172 422 H120 v-54 H84" />
    <path d="M172 518 H108 v-54 H70" />
    <path d="M172 614 H116 v-54 H80" />
    <path d="M172 710 H124 v-54 H86" />

    <path d="M1028 230 H1082 v-54 h38" />
    <path d="M1028 326 H1094 v-54 h38" />
    <path d="M1028 422 H1080 v-54 h36" />
    <path d="M1028 518 H1092 v-54 h40" />
    <path d="M1028 614 H1082 v-54 h36" />
    <path d="M1028 710 H1096 v-54 h34" />

    <path d="M284 742 V808 h-44 v36" />
    <path d="M412 742 V812 h-44 v32" />
    <path d="M540 742 V806 h-44 v38" />
    <path d="M668 742 V810 h-44 v34" />
    <path d="M796 742 V806 h-44 v38" />
    <path d="M924 742 V812 h-44 v32" />

    <path d="M284 158 V90 h-44 V54" />
    <path d="M412 158 V84 h-44 V48" />
    <path d="M540 158 V88 h-44 V52" />
    <path d="M668 158 V84 h-44 V50" />
    <path d="M796 158 V88 h-44 V52" />
    <path d="M924 158 V82 h-44 V48" />
  </g>

  <g stroke="#705221" stroke-width="3">
    <path d="M172 194 H1028" />
    <path d="M172 258 H1028" />
    <path d="M172 322 H1028" />
    <path d="M172 386 H1028" />
    <path d="M172 450 H1028" />
    <path d="M172 514 H1028" />
    <path d="M172 578 H1028" />
    <path d="M172 642 H1028" />
    <path d="M172 706 H1028" />

    <path d="M236 158 V742" />
    <path d="M300 158 V742" />
    <path d="M364 158 V742" />
    <path d="M428 158 V742" />
    <path d="M492 158 V742" />
    <path d="M556 158 V742" />
    <path d="M620 158 V742" />
    <path d="M684 158 V742" />
    <path d="M748 158 V742" />
    <path d="M812 158 V742" />
    <path d="M876 158 V742" />
    <path d="M940 158 V742" />
  </g>

  <g fill="#2a2012" font-family="'SFMono-Regular', Consolas, 'Liberation Mono', Menlo, monospace" font-size="24" font-weight="700" text-anchor="middle">
    <text x="204" y="206">THE</text>
    <text x="268" y="206">ENGINE</text>
    <text x="332" y="206">OF</text>
    <text x="396" y="206">WORDS</text>
    <text x="460" y="206">MAY</text>
    <text x="524" y="206">TURN</text>
    <text x="588" y="206">TO</text>
    <text x="652" y="206">FORM</text>
    <text x="716" y="206">NEW</text>
    <text x="780" y="206">PHRASE</text>
    <text x="844" y="206">BY</text>
    <text x="908" y="206">RULE</text>
    <text x="972" y="206">ALONE</text>

    <text x="204" y="270">SHIFT</text>
    <text x="268" y="270">BLOCKS</text>
    <text x="332" y="270">AND</text>
    <text x="396" y="270">SORT</text>
    <text x="460" y="270">IDEAS</text>
    <text x="524" y="270">WITH</text>
    <text x="588" y="270">A</text>
    <text x="652" y="270">HANDLE</text>
    <text x="716" y="270">TO</text>
    <text x="780" y="270">MAKE</text>
    <text x="844" y="270">TEXT</text>
    <text x="908" y="270">SEEM</text>
    <text x="972" y="270">MECHANIC</text>
  </g>

  <g stroke="#2a2012" stroke-width="5" stroke-linecap="round" opacity="0.95">
    <path d="M197 332 l18 -8 l16 8" />
    <path d="M259 348 l18 -8 l16 8" />
    <path d="M329 336 l18 -8 l16 8" />
    <path d="M389 350 l18 -8 l16 8" />
    <path d="M455 334 l18 -8 l16 8" />
    <path d="M519 348 l18 -8 l16 8" />
    <path d="M585 338 l18 -8 l16 8" />
    <path d="M647 352 l18 -8 l16 8" />
    <path d="M715 336 l18 -8 l16 8" />
    <path d="M777 348 l18 -8 l16 8" />
    <path d="M841 336 l18 -8 l16 8" />
    <path d="M903 350 l18 -8 l16 8" />
    <path d="M969 338 l18 -8 l16 8" />

    <path d="M197 404 l18 -8 l16 8" />
    <path d="M259 416 l18 -8 l16 8" />
    <path d="M329 402 l18 -8 l16 8" />
    <path d="M389 418 l18 -8 l16 8" />
    <path d="M455 404 l18 -8 l16 8" />
    <path d="M519 416 l18 -8 l16 8" />
    <path d="M585 402 l18 -8 l16 8" />
    <path d="M647 418 l18 -8 l16 8" />
    <path d="M715 404 l18 -8 l16 8" />
    <path d="M777 416 l18 -8 l16 8" />
    <path d="M841 402 l18 -8 l16 8" />
    <path d="M903 418 l18 -8 l16 8" />
    <path d="M969 404 l18 -8 l16 8" />

    <path d="M197 476 l18 -8 l16 8" />
    <path d="M259 488 l18 -8 l16 8" />
    <path d="M329 474 l18 -8 l16 8" />
    <path d="M389 490 l18 -8 l16 8" />
    <path d="M455 476 l18 -8 l16 8" />
    <path d="M519 488 l18 -8 l16 8" />
    <path d="M585 474 l18 -8 l16 8" />
    <path d="M647 490 l18 -8 l16 8" />
    <path d="M715 476 l18 -8 l16 8" />
    <path d="M777 488 l18 -8 l16 8" />
    <path d="M841 474 l18 -8 l16 8" />
    <path d="M903 490 l18 -8 l16 8" />
    <path d="M969 476 l18 -8 l16 8" />

    <path d="M197 548 l18 -8 l16 8" />
    <path d="M259 560 l18 -8 l16 8" />
    <path d="M329 546 l18 -8 l16 8" />
    <path d="M389 562 l18 -8 l16 8" />
    <path d="M455 548 l18 -8 l16 8" />
    <path d="M519 560 l18 -8 l16 8" />
    <path d="M585 546 l18 -8 l16 8" />
    <path d="M647 562 l18 -8 l16 8" />
    <path d="M715 548 l18 -8 l16 8" />
    <path d="M777 560 l18 -8 l16 8" />
    <path d="M841 546 l18 -8 l16 8" />
    <path d="M903 562 l18 -8 l16 8" />
    <path d="M969 548 l18 -8 l16 8" />

    <path d="M197 620 l18 -8 l16 8" />
    <path d="M259 632 l18 -8 l16 8" />
    <path d="M329 618 l18 -8 l16 8" />
    <path d="M389 634 l18 -8 l16 8" />
    <path d="M455 620 l18 -8 l16 8" />
    <path d="M519 632 l18 -8 l16 8" />
    <path d="M585 618 l18 -8 l16 8" />
    <path d="M647 634 l18 -8 l16 8" />
    <path d="M715 620 l18 -8 l16 8" />
    <path d="M777 632 l18 -8 l16 8" />
    <path d="M841 618 l18 -8 l16 8" />
    <path d="M903 634 l18 -8 l16 8" />
    <path d="M969 620 l18 -8 l16 8" />

    <path d="M197 692 l18 -8 l16 8" />
    <path d="M259 704 l18 -8 l16 8" />
    <path d="M329 690 l18 -8 l16 8" />
    <path d="M389 706 l18 -8 l16 8" />
    <path d="M455 692 l18 -8 l16 8" />
    <path d="M519 704 l18 -8 l16 8" />
    <path d="M585 690 l18 -8 l16 8" />
    <path d="M647 706 l18 -8 l16 8" />
    <path d="M715 692 l18 -8 l16 8" />
    <path d="M777 704 l18 -8 l16 8" />
    <path d="M841 690 l18 -8 l16 8" />
    <path d="M903 706 l18 -8 l16 8" />
    <path d="M969 692 l18 -8 l16 8" />
  </g>

  <rect x="132" y="118" width="936" height="664" rx="18" fill="none" stroke="#f9f3e7" stroke-width="2" opacity="0.55" />
</svg>
