<svg xmlns="http://www.w3.org/2000/svg" width="1004" height="590" viewBox="0 0 1004 590" role="img" aria-label="Life Lab thumbnail with pixel-style cellular automata pattern">
  <rect width="1004" height="590" fill="#000"/>
  <g fill="#f7f9fb">
    <rect x="22" y="334" width="9" height="9"/><rect x="32" y="334" width="9" height="9"/>
    <rect x="62" y="356" width="9" height="9"/><rect x="72" y="356" width="9" height="9"/><rect x="82" y="356" width="9" height="9"/>
    <rect x="92" y="286" width="9" height="9"/><rect x="102" y="286" width="9" height="9"/><rect x="112" y="286" width="9" height="9"/>
    <rect x="92" y="296" width="9" height="9"/><rect x="112" y="296" width="9" height="9"/>
    <rect x="102" y="306" width="9" height="9"/><rect x="112" y="306" width="9" height="9"/>
    <rect x="142" y="166" width="9" height="9"/><rect x="152" y="166" width="9" height="9"/><rect x="162" y="166" width="9" height="9"/>
    <rect x="132" y="176" width="9" height="9"/><rect x="162" y="176" width="9" height="9"/>
    <rect x="142" y="186" width="9" height="9"/><rect x="152" y="186" width="9" height="9"/>
    <rect x="202" y="314" width="9" height="9"/><rect x="212" y="314" width="9" height="9"/>
    <rect x="242" y="324" width="9" height="9"/><rect x="252" y="324" width="9" height="9"/>
    <rect x="242" y="334" width="9" height="9"/><rect x="252" y="334" width="9" height="9"/>
    <rect x="262" y="324" width="9" height="9"/><rect x="272" y="324" width="9" height="9"/>
    <rect x="272" y="334" width="9" height="9"/><rect x="282" y="334" width="9" height="9"/>
    <rect x="292" y="324" width="9" height="9"/><rect x="302" y="324" width="9" height="9"/>
    <rect x="292" y="334" width="9" height="9"/><rect x="302" y="334" width="9" height="9"/>
    <rect x="272" y="344" width="9" height="9"/><rect x="282" y="344" width="9" height="9"/>
    <rect x="372" y="352" width="9" height="9"/><rect x="382" y="352" width="9" height="9"/><rect x="392" y="352" width="9" height="9"/>
    <rect x="352" y="362" width="9" height="9"/><rect x="362" y="362" width="9" height="9"/><rect x="402" y="362" width="9" height="9"/>
    <rect x="352" y="372" width="9" height="9"/><rect x="362" y="372" width="9" height="9"/><rect x="392" y="372" width="9" height="9"/>
    <rect x="402" y="372" width="9" height="9"/><rect x="412" y="372" width="9" height="9"/>
    <rect x="362" y="382" width="9" height="9"/><rect x="372" y="382" width="9" height="9"/>
    <rect x="382" y="382" width="9" height="9"/><rect x="392" y="382" width="9" height="9"/>
    <rect x="432" y="346" width="9" height="9"/><rect x="442" y="346" width="9" height="9"/><rect x="452" y="346" width="9" height="9"/>
    <rect x="422" y="356" width="9" height="9"/><rect x="462" y="356" width="9" height="9"/>
    <rect x="422" y="366" width="9" height="9"/><rect x="432" y="366" width="9" height="9"/><rect x="442" y="366" width="9" height="9"/>
    <rect x="452" y="366" width="9" height="9"/><rect x="462" y="366" width="9" height="9"/>
    <rect x="522" y="142" width="9" height="9"/><rect x="532" y="142" width="9" height="9"/><rect x="542" y="142" width="9" height="9"/>
    <rect x="512" y="152" width="9" height="9"/><rect x="542" y="152" width="9" height="9"/>
    <rect x="522" y="162" width="9" height="9"/><rect x="532" y="162" width="9" height="9"/>
    <rect x="652" y="244" width="9" height="9"/><rect x="662" y="244" width="9" height="9"/><rect x="672" y="244" width="9" height="9"/>
    <rect x="642" y="254" width="9" height="9"/><rect x="672" y="254" width="9" height="9"/><rect x="682" y="254" width="9" height="9"/>
    <rect x="632" y="264" width="9" height="9"/><rect x="642" y="264" width="9" height="9"/><rect x="672" y="264" width="9" height="9"/><rect x="682" y="264" width="9" height="9"/>
    <rect x="622" y="274" width="9" height="9"/><rect x="632" y="274" width="9" height="9"/><rect x="682" y="274" width="9" height="9"/>
    <rect x="622" y="284" width="9" height="9"/><rect x="642" y="284" width="9" height="9"/><rect x="662" y="284" width="9" height="9"/><rect x="682" y="284" width="9" height="9"/>
    <rect x="612" y="294" width="9" height="9"/><rect x="632" y="294" width="9" height="9"/><rect x="652" y="294" width="9" height="9"/><rect x="672" y="294" width="9" height="9"/>
    <rect x="612" y="304" width="9" height="9"/><rect x="622" y="304" width="9" height="9"/><rect x="662" y="304" width="9" height="9"/><rect x="672" y="304" width="9" height="9"/>
    <rect x="692" y="284" width="9" height="9"/><rect x="702" y="284" width="9" height="9"/><rect x="712" y="284" width="9" height="9"/>
    <rect x="732" y="316" width="9" height="9"/><rect x="742" y="316" width="9" height="9"/><rect x="752" y="316" width="9" height="9"/>
    <rect x="742" y="306" width="9" height="9"/><rect x="752" y="306" width="9" height="9"/>
    <rect x="742" y="326" width="9" height="9"/><rect x="752" y="326" width="9" height="9"/><rect x="762" y="326" width="9" height="9"/>
    <rect x="792" y="392" width="9" height="9"/><rect x="802" y="392" width="9" height="9"/><rect x="812" y="392" width="9" height="9"/><rect x="822" y="392" width="9" height="9"/>
    <rect x="782" y="402" width="9" height="9"/><rect x="812" y="402" width="9" height="9"/><rect x="832" y="402" width="9" height="9"/>
    <rect x="772" y="412" width="9" height="9"/><rect x="822" y="412" width="9" height="9"/><rect x="832" y="412" width="9" height="9"/>
    <rect x="762" y="422" width="9" height="9"/><rect x="772" y="422" width="9" height="9"/><rect x="802" y="422" width="9" height="9"/><rect x="812" y="422" width="9" height="9"/>
    <rect x="772" y="432" width="9" height="9"/><rect x="782" y="432" width="9" height="9"/><rect x="792" y="432" width="9" height="9"/><rect x="822" y="432" width="9" height="9"/>
    <rect x="802" y="442" width="9" height="9"/><rect x="812" y="442" width="9" height="9"/>
    <rect x="872" y="294" width="9" height="9"/><rect x="882" y="294" width="9" height="9"/>
    <rect x="882" y="304" width="9" height="9"/><rect x="892" y="304" width="9" height="9"/>
    <rect x="882" y="314" width="9" height="9"/><rect x="892" y="314" width="9" height="9"/>
    <rect x="912" y="286" width="9" height="9"/><rect x="922" y="286" width="9" height="9"/>
    <rect x="902" y="296" width="9" height="9"/><rect x="932" y="296" width="9" height="9"/>
    <rect x="902" y="306" width="9" height="9"/><rect x="932" y="306" width="9" height="9"/>
    <rect x="912" y="316" width="9" height="9"/><rect x="922" y="316" width="9" height="9"/>
    <rect x="472" y="2" width="9" height="9"/><rect x="482" y="2" width="9" height="9"/><rect x="492" y="2" width="9" height="9"/>
    <rect x="502" y="2" width="9" height="9"/><rect x="482" y="12" width="9" height="9"/><rect x="502" y="12" width="9" height="9"/>
    <rect x="582" y="2" width="9" height="9"/><rect x="582" y="12" width="9" height="9"/><rect x="582" y="22" width="9" height="9"/>
    <rect x="542" y="42" width="9" height="9"/><rect x="552" y="42" width="9" height="9"/><rect x="562" y="42" width="9" height="9"/>
    <rect x="602" y="42" width="9" height="9"/><rect x="612" y="42" width="9" height="9"/><rect x="622" y="42" width="9" height="9"/>
    <rect x="802" y="64" width="9" height="9"/><rect x="812" y="64" width="9" height="9"/><rect x="822" y="64" width="9" height="9"/>
    <rect x="812" y="54" width="9" height="9"/><rect x="812" y="74" width="9" height="9"/>
    <rect x="832" y="74" width="9" height="9"/><rect x="842" y="74" width="9" height="9"/><rect x="852" y="74" width="9" height="9"/>
    <rect x="842" y="64" width="9" height="9"/><rect x="842" y="84" width="9" height="9"/>
    <rect x="102" y="84" width="9" height="9"/><rect x="102" y="94" width="9" height="9"/><rect x="102" y="104" width="9" height="9"/>
    <rect x="142" y="44" width="9" height="9"/><rect x="152" y="44" width="9" height="9"/><rect x="142" y="54" width="9" height="9"/><rect x="152" y="54" width="9" height="9"/>
    <rect x="182" y="84" width="9" height="9"/><rect x="182" y="94" width="9" height="9"/><rect x="192" y="94" width="9" height="9"/>
    <rect x="182" y="194" width="9" height="9"/><rect x="192" y="194" width="9" height="9"/><rect x="202" y="204" width="9" height="9"/>
    <rect x="582" y="94" width="9" height="9"/><rect x="582" y="104" width="9" height="9"/><rect x="582" y="114" width="9" height="9"/>
    <rect x="682" y="124" width="9" height="9"/><rect x="692" y="124" width="9" height="9"/><rect x="682" y="134" width="9" height="9"/><rect x="692" y="134" width="9" height="9"/>
    <rect x="712" y="144" width="9" height="9"/><rect x="722" y="144" width="9" height="9"/><rect x="732" y="144" width="9" height="9"/><rect x="742" y="144" width="9" height="9"/>
    <rect x="742" y="134" width="9" height="9"/><rect x="742" y="154" width="9" height="9"/>
    <rect x="782" y="224" width="9" height="9"/><rect x="792" y="224" width="9" height="9"/><rect x="802" y="224" width="9" height="9"/>
    <rect x="792" y="214" width="9" height="9"/><rect x="792" y="234" width="9" height="9"/>
    <rect x="812" y="244" width="9" height="9"/><rect x="822" y="244" width="9" height="9"/><rect x="832" y="244" width="9" height="9"/>
    <rect x="772" y="254" width="9" height="9"/><rect x="782" y="254" width="9" height="9"/><rect x="792" y="254" width="9" height="9"/>
    <rect x="922" y="204" width="9" height="9"/><rect x="932" y="204" width="9" height="9"/><rect x="942" y="204" width="9" height="9"/>
    <rect x="12" y="574" width="9" height="9"/><rect x="22" y="574" width="9" height="9"/>
    <rect x="152" y="574" width="9" height="9"/><rect x="162" y="574" width="9" height="9"/><rect x="172" y="574" width="9" height="9"/>
    <rect x="162" y="564" width="9" height="9"/><rect x="162" y="584" width="9" height="9"/>
    <rect x="402" y="574" width="9" height="9"/><rect x="612" y="584" width="9" height="9"/><rect x="702" y="584" width="9" height="9"/>
    <rect x="2" y="574" width="9" height="9"/><rect x="892" y="494" width="9" height="9"/><rect x="902" y="494" width="9" height="9"/>
    <rect x="312" y="504" width="9" height="9"/><rect x="482" y="404" width="9" height="9"/><rect x="492" y="404" width="9" height="9"/>
    <rect x="492" y="414" width="9" height="9"/><rect x="542" y="484" width="9" height="9"/><rect x="552" y="484" width="9" height="9"/>
    <rect x="712" y="484" width="9" height="9"/><rect x="722" y="484" width="9" height="9"/><rect x="732" y="484" width="9" height="9"/>
    <rect x="772" y="574" width="9" height="9"/><rect x="782" y="574" width="9" height="9"/><rect x="792" y="574" width="9" height="9"/>
    <rect x="872" y="564" width="9" height="9"/><rect x="882" y="554" width="9" height="9"/><rect x="892" y="564" width="9" height="9"/>
  </g>
  <line x1="0" y1="589" x2="1004" y2="589" stroke="#e8edf5" stroke-width="1"/>
</svg>
