<svg xmlns="http://www.w3.org/2000/svg" viewBox="0 0 1600 900" role="img" aria-labelledby="title desc">
  <title id="title">Silk flag study</title>
  <desc id="desc">A minimalist silk-in-the-wind study with warm copper and ivory folds.</desc>
  <defs>
    <linearGradient id="bg" x1="0%" x2="100%" y1="0%" y2="100%">
      <stop offset="0%" stop-color="#0a1213" />
      <stop offset="52%" stop-color="#1c1714" />
      <stop offset="100%" stop-color="#28180f" />
    </linearGradient>
    <linearGradient id="foldA" x1="8%" x2="88%" y1="20%" y2="72%">
      <stop offset="0%" stop-color="#efe7d8" />
      <stop offset="46%" stop-color="#d4a26e" />
      <stop offset="100%" stop-color="#7d2e26" />
    </linearGradient>
    <linearGradient id="foldB" x1="18%" x2="92%" y1="10%" y2="90%">
      <stop offset="0%" stop-color="#d7c4a0" />
      <stop offset="40%" stop-color="#a34f3e" />
      <stop offset="100%" stop-color="#351816" />
    </linearGradient>
    <linearGradient id="foldC" x1="18%" x2="84%" y1="0%" y2="100%">
      <stop offset="0%" stop-color="#f8f3e8" />
      <stop offset="48%" stop-color="#ca7f5e" />
      <stop offset="100%" stop-color="#542421" />
    </linearGradient>
    <filter id="blurGlow" x="-20%" y="-20%" width="140%" height="140%">
      <feGaussianBlur stdDeviation="48" />
    </filter>
  </defs>

  <rect width="1600" height="900" fill="url(#bg)" />
  <ellipse cx="1220" cy="180" rx="320" ry="220" fill="#d59b68" opacity="0.22" filter="url(#blurGlow)" />
  <ellipse cx="380" cy="150" rx="420" ry="260" fill="#90a88a" opacity="0.18" filter="url(#blurGlow)" />

  <path d="M120 560C270 430 430 408 620 478s350 80 490-38c101-86 187-96 370-70v310H120z" fill="#0e1213" opacity=".54"/>

  <path d="M178 540c182-194 412-220 674-94 218 106 356 88 566-94l4 304H172z" fill="url(#foldA)" opacity=".96"/>
  <path d="M118 610c160-132 332-174 502-128 210 58 392 38 642-120l4 268H118z" fill="url(#foldB)" opacity=".88"/>
  <path d="M84 668c236-110 388-106 596-18 194 82 388 68 746-44l4 214H84z" fill="url(#foldC)" opacity=".9"/>

  <path d="M192 526c154-94 274-112 430-62 150 48 248 54 390 28 110-20 226-68 386-170" fill="none" stroke="#fff7eb" stroke-opacity=".44" stroke-width="18" stroke-linecap="round"/>
  <path d="M128 610c170-98 314-122 468-86 156 38 292 34 478-26 108-34 216-86 354-170" fill="none" stroke="#f6d1a2" stroke-opacity=".32" stroke-width="22" stroke-linecap="round"/>
  <path d="M126 682c202-58 364-44 538 22 194 74 392 76 684 12" fill="none" stroke="#fff3e0" stroke-opacity=".16" stroke-width="18" stroke-linecap="round"/>

  <g fill="#fff5e8" opacity=".08">
    <circle cx="194" cy="206" r="2.4"/>
    <circle cx="316" cy="178" r="1.9"/>
    <circle cx="540" cy="130" r="2.1"/>
    <circle cx="988" cy="196" r="2.4"/>
    <circle cx="1328" cy="120" r="1.8"/>
    <circle cx="1180" cy="194" r="1.6"/>
    <circle cx="1448" cy="248" r="2.2"/>
  </g>
</svg>
